<svg width="16px" height="16px" viewBox="0 0 0.48 0.48" xmlns="http://www.w3.org/2000/svg" class="bi" fill="currentColor">
    <path d="M0.359 0.14A0.099 0.099 0 0 0 0.36 0.13a0.11 0.11 0 1 0 -0.173 0.09L0.144 0.302A0.049 0.049 0 0 0 0.13 0.3 0.05 0.05 0 1 0 0.18 0.35a0.047 0.047 0 0 0 -0.019 -0.038l0.052 -0.099 -0.008 -0.005A0.09 0.09 0 1 1 0.34 0.13a0.096 0.096 0 0 1 0 0.009zM0.13 0.38a0.03 0.03 0 1 1 0.03 -0.03A0.03 0.03 0 0 1 0.13 0.38zM0.37 0.24a0.115 0.115 0 0 0 -0.029 0.003l-0.055 -0.079A0.048 0.048 0 0 0 0.3 0.13a0.051 0.051 0 1 0 -0.03 0.046l0.063 0.091 0.007 -0.003A0.085 0.085 0 0 1 0.37 0.26a0.09 0.09 0 1 1 0 0.18h0a0.094 0.094 0 0 1 -0.062 -0.027l-0.014 0.014A0.113 0.113 0 0 0 0.37 0.46h0a0.11 0.11 0 0 0 0 -0.22zM0.22 0.13A0.03 0.03 0 1 1 0.25 0.16 0.03 0.03 0 0 1 0.22 0.13zM0.37 0.4a0.05 0.05 0 1 0 -0.049 -0.06h-0.101l0 0.01A0.091 0.091 0 0 1 0.13 0.44 0.091 0.091 0 0 1 0.04 0.35a0.092 0.092 0 0 1 0.063 -0.087l-0.006 -0.019A0.112 0.112 0 0 0 0.02 0.35 0.111 0.111 0 0 0 0.13 0.46a0.111 0.111 0 0 0 0.11 -0.1h0.082a0.05 0.05 0 0 0 0.049 0.04zm0 -0.08a0.03 0.03 0 1 1 -0.03 0.03 0.03 0.03 0 0 1 0.03 -0.03z"/>
    <path fill="none" d="M0 0h0.48v0.48H0z"/>
</svg>